# ProBuilder 6.0.6
# https://unity3d.com/unity/features/worldbuilding/probuilder
# 8/15/2025 12:31:09 PM

mtllib ./Corrupted1.mtl
o Corrupted1

g Corrupted1
v 0.2185993 0.9305512 0.538372
v 0.5 -0.5 0.5
v 0.6645145 0.370629 -0.09954834
v 0.5 0.2620925 0.8366127
v -0.5327358 0.2726997 0.5905991
v -0.5 -0.6108499 0.3487892
v 0.5940437 0.09249413 0.6467781
v 0.4152946 -0.0432409 0.663929
v 0.3713627 0.02793682 0.6919136
v 0.3921013 0.1724869 0.7192116
v -0.0868206 -0.2872225 -0.04732132
v 0.1306438 -0.7923938 -0.413414
v 0.3166046 -0.9440644 -0.1420059
v 0.09622383 -0.9193475 -0.1862335
v -0.5 0.2620925 0.8366127
v 0.06259727 0.2183748 -0.5928383
v -0.1737766 0.2556889 -0.5928383
v -0.1827545 0.138517 -0.5928383
v 1.675793 0.1298209 0.6566048
v 1.675793 0.144348 0.3026085
v 1.675793 -0.243237 0.4382095

vt 0.7731197 1
vt 0.6058178 -0.4488428
vt 0 0.4329184
vt 0.902123 0.2783281
vt 0.283554 1
vt 1.036666 0.3421074
vt 0 -0.4306406
vt 0.9849092 -0.5440534
vt 0.405924 0.2573667
vt 0.228845 0.1183976
vt 0.1791574 0.1912713
vt 0.1921046 0.3392657
vt 0.5111884 0.696112
vt 0.7457212 -0.0681222
vt -0.2528602 -0.01487035
vt 0.2871384 0.7103367
vt 0.3861366 0.2524959
vt 0.3656246 0.1057759
vt 0.4097866 0.03194752
vt -0.08642606 -0.2907997
vt -0.5376046 0.3367788
vt 0.2141369 0.9853072
vt 0.6653155 0.3577287
vt 0.5886714 0.1650653
vt -0.1306489 0.02565961
vt -0.3166106 0.3365711
vt -0.09622968 0.2859062
vt 0.160296 -0.864172
vt 0.3468572 -0.8230504
vt 0.1408667 0.7082491
vt -0.7826492 0.5169087
vt -0.06202964 -0.287345
vt 0.6518725 0.4025056
vt 0.2792208 -0.8522189
vt -0.2372134 -0.713467
vt 0.3437857 0.4691536
vt 0.9641125 0.2318498
vt 0.09060048 -0.8676934
vt 0.06259727 0.2183748
vt -0.1737766 0.2556889
vt -0.1827545 0.138517
vt -0.2115204 -0.5735309
vt -0.534752 0.8481396
vt 0.4530162 0.8602533
vt 0.02778054 -0.5735309
vt -0.1771671 -0.6076558
vt 0.07113481 -0.6177935
vt 0.5099182 0.7928241
vt 0.4799547 0.5697943
vt -0.5236304 0.430496
vt -0.4893086 0.7871422
vt -0.1635892 -0.6245249
vt 0.6566048 0.1298209
vt 0.3026085 0.144348
vt 0.4382095 -0.243237
vt 1.666049 0.2922951
vt 1.662015 0.01301304
vt -0.5101547 -0.3840023
vt -0.5500695 0.5096069
vt -0.08537444 -0.2772306
vt -0.5246667 0.6156274
vt 1.655518 0.4448467
vt -1.638456 0.4763505
vt 0.543835 0.6229959
vt 0.5178615 -0.3766669
vt -1.650084 0.04431036

vn -0.8691421 -0.1584001 -0.4685098
vn 0.05728272 -0.1155182 -0.1520305
vn 0.9837075 -0.07263625 0.1644488
vn -0.07908072 0.01118177 -0.9968055
vn 0.01806178 0.1386827 -0.9769094
vn 0.1152043 0.2661837 -0.9570132
vn 0.253378 -0.2144858 0.9432898
vn 0.5727485 -0.784352 -0.2382249
vn 0.6055519 -0.7644604 -0.2167341
vn 0.6383553 -0.7445688 -0.1952432
vn 0.05312775 0.114964 0.9334486
vn -0.3299259 -0.5168616 0.6951076
vn -0.5594642 -0.5786337 0.59345
vn -0.4183239 -0.6942312 0.555253
vn -0.1810532 -0.2553003 0.8212953
vn 0.3954945 0.3098645 0.6885119
vn 0.8739701 0.4225791 0.2400067
vn 0.6496647 0.3617716 0.5467615
vn 5.556873E-06 0.8729433 0.4878218
vn 0.5229884 0.416046 -0.2393738
vn 0.2218159 0.5938002 -0.7734333
vn 0.110908 0.6241701 -0.7647303
vn 0.4647021 0.4278328 -0.2232909
vn 0.7618025 0.00201338 0.4613767
vn 0.41527 -0.4098038 0.8121648
vn 0.6780018 -0.09754272 0.5373423
vn -0.7610926 0.1812966 0.6227918
vn -0.8587131 0.2194181 0.2422954
vn -0.9563336 0.2575396 -0.1382009
vn 0 0 1
vn -0.07772907 -0.9923865 0.04108349
vn 0 -0.99999 0.004479693
vn -0.1554581 -0.9847829 0.07768729
vn 0.3787355 0.3397472 0.4057695
vn -0.5973801 0.3156767 0.4466076
vn -0.9470339 -0.12975 0.2937545
vn -0.4567883 0.4765435 0.4897791
vn 0.3952576 0.3361866 0.4007113
vn 0.9691365 -0.1001959 0.2237474
vn 0.9721529 -0.07448785 0.2221944
vn -1 0 0
vn 0.1134605 0.03101009 0.07265317
vn 0.07289312 0.03157096 0.9495267
vn 0.004928959 -0.2637995 0.964565
vn 0.03341258 0.2659734 0.4074256
vn 0.06374033 -0.3616568 -0.06384162
vn -0.008303193 -0.8510593 0.525004
vn 0.1183847 -0.9098743 0.2426258
vn -0.04065062 0.5047958 -0.8622811
vn -0.04357245 0.4960458 -0.8671397
vn -0.04649427 0.4872959 -0.8719983

usemtl ProBuilderDefault
f 9/18/12 11/20/14 8/19/13
f 5/21/15 11/20/14 9/18/12
f 10/17/11 5/21/15 9/18/12
f 1/22/16 5/21/15 10/17/11
f 1/22/16 10/17/11 7/24/18
f 3/23/17 1/22/16 7/24/18
f 14/27/19 13/26/19 12/25/19
f 12/34/26 3/33/25 11/32/24
f 14/28/20 12/34/26 11/32/24
f 14/28/20 11/32/24 15/31/23
f 4/30/22 13/29/21 14/28/20
f 15/31/23 4/30/22 14/28/20
f 16/39/30 17/40/30 18/41/30
f 16/47/35 2/49/37 4/48/36
f 16/47/35 18/46/34 2/49/37
f 18/46/34 6/50/38 2/49/37
f 15/51/39 6/50/38 18/46/34
f 15/51/39 18/46/34 17/52/40
f 19/53/41 20/54/41 21/55/41
f 21/57/43 5/59/45 6/58/44
f 20/56/42 5/59/45 21/57/43
f 11/60/46 5/59/45 20/56/42
f 11/60/46 20/56/42 19/62/48
f 11/60/46 19/62/48 15/61/47
f 4/4/3 2/2/2 1/1/1
f 1/1/1 3/3/2 4/4/3
f 6/8/6 5/6/5 1/5/4
f 1/5/4 2/7/5 6/8/6
f 10/12/7 9/11/7 8/10/7
f 8/10/7 7/9/7 10/12/7
f 7/13/8 8/16/9 11/15/10
f 11/15/10 3/14/9 7/13/8
f 4/37/29 3/36/28 12/35/27
f 12/35/27 13/38/28 4/37/29
f 17/42/31 16/45/33 4/44/31
f 4/44/31 15/43/32 17/42/31
f 19/63/49 21/66/50 6/65/51
f 6/65/51 15/64/50 19/63/49

