# ProBuilder 6.0.6
# https://unity3d.com/unity/features/worldbuilding/probuilder
# 8/15/2025 12:31:55 PM

mtllib ./Corrupted2.mtl
o Corrupted2

g Corrupted2
v 0.3305969 -0.7852253 0.2478561
v 0.5 -0.5 0.5
v 0.7221966 0.008526444 0.6165085
v 0.6677761 -0.1017814 0.8366127
v -0.5662022 -0.3427877 0.2478561
v 1.357487 0.7691096 0.3487892
v 0.4372578 0.05228984 -0.1292953
v 0.2286148 0.1367723 -0.1292953
v 0.2010574 0.05298722 -0.1292953
v 0.2544918 -0.08563113 -0.1292953
v -0.1746025 0.4509639 0.6165085
v -0.1300068 -0.8840268 -0.413414
v -0.0303421 -1.102321 -0.1420059
v -0.2170429 -0.9826501 -0.1862335
v 1.530668 -0.2049545 0.8366127
v 0.06259727 0.2183748 -0.5928383
v -0.1737766 0.2556889 -0.5928383
v -0.1827545 0.138517 -0.5928383
v -0.274044 -0.84977 0.6566048
v 1.675793 0.144348 0.3026085
v -0.4374523 -0.5144041 0.4382095
v -0.540514 0.272969 1.427647
v -0.6733017 0.3265988 1.232292
v -0.6221275 0.4162787 1.250031
v -0.5687599 0.4145206 1.318218

vt 0.651135 0.1532444
vt 0.3664488 0.4575161
vt 0.2013552 1
vt 0 0.8603001
vt 0.8497623 -0.178071
vt 0 0.3490948
vt 1.090867 0.1617759
vt 1.855051 1
vt -0.4372578 0.05228984
vt -0.2286148 0.1367723
vt -0.2010574 0.05298722
vt -0.2544918 -0.08563113
vt -0.3689975 -0.09507366
vt -0.643893 0.6555877
vt 0.3561068 0.6555877
vt -0.1445084 -0.09734545
vt -0.2745438 0.05391289
vt -0.4605058 0.3648242
vt -0.2401256 0.3141593
vt -0.270035 -0.9018641
vt -0.08006949 -1.019312
vt 0.9270179 0.1746868
vt 1.730407 -0.07003816
vt 0.06240936 0.7063333
vt 0.8973668 0.1601463
vt -0.2719017 -0.9356735
vt -0.4222147 -0.8375648
vt 0.8976755 0.07978576
vt 1.059738 -0.06415907
vt -0.1377664 -1.061924
vt 0.06259727 0.2183748
vt -0.1737766 0.2556889
vt -0.1827545 0.138517
vt -0.2115204 -0.6204051
vt 1.543904 0.8211565
vt 0.6754788 0.8261627
vt 0.02778054 -0.6204051
vt -0.515165 0.2890844
vt -0.3245145 0.4339519
vt 1.045492 -0.2006503
vt 0.7032444 -0.4728114
vt 1.274376 0.955745
vt 1.716002 -0.02674436
vt -0.5081887 0.3942233
vt -0.1935055 -1.079592
vt 1.699962 0.07376349
vt -0.3818729 -0.6905069
vt -1.691064 0.1129637
vt 0.410063 -0.5776407
vt -1.376146 0.721067
vt 0.5501233 -0.3808534
vt 0.1368809 0.3529271
vt -1.578602 -0.3129839
vt 0.2337069 -0.9402065
vt 0.09109969 -1.061013
vt -1.697161 -0.3490286
vt -1.401411 0.7136551
vt 0.3063382 -0.6866316
vt -0.7825076 -0.1444533
vt -0.5469366 -0.088076
vt -0.5926378 0.006196671
vt -0.679225 0.004348536
vt -0.6503664 1.303568
vt -0.5970101 1.369183
vt -0.5586902 1.431336
vt -0.2064789 0.7199755
vt -0.5401743 0.1204042
vt 0.3860323 0.006245798
vt 0.7197276 0.6058171
vt 0.4323848 -0.09794281
vt 0.2599753 -0.143564
vt 0.1967421 -0.1028588
vt -0.6949806 1.258467
vt 1.404236 0.3263814
vt -0.2098231 0.04858152
vt -0.2230271 0.1313833
vt 0.6247911 0.4452154
vt 1.512081 0.2647768

vn 0.9115802 -0.3482445 -0.2185115
vn 0.9128598 -0.3764907 -0.0976652
vn 0.9141393 -0.4047369 0.02318106
vn -0.2682382 -0.5437056 0.7952563
vn -0.2288581 -0.1511427 0.8734995
vn -0.189478 0.2414202 0.9517428
vn 0 0 -1
vn 0.3738361 0.9232485 -0.08865057
vn 0.4060422 0.9057781 -0.112969
vn 0.4382482 0.8883078 -0.1372875
vn 0.3862297 0.7828521 0.4878209
vn 0.4009321 -0.00148946 -0.1602155
vn 0.4616452 0.4343787 -0.7734331
vn 0.1879537 -0.1413465 -0.04086366
vn 0.1001158 -0.1276842 -0.07398382
vn 0.3121783 -0.1045627 0.06452078
vn -0.2912864 -0.5904233 0.7526969
vn 0.3252827 -0.3876957 0.5166179
vn -0.8384476 0.2309377 0.4936329
vn -0.8414592 0.3816922 0.2758403
vn -0.8444709 0.5324467 0.05804763
vn 0 0 1
vn -0.01860442 0.000706017 0.01112943
vn 0.1168755 0.9774922 0.1756391
vn -0.1540843 -0.9760802 -0.1533803
vn 0.09928598 0.1285782 -0.01429209
vn -0.5817617 0.4049798 0.4990596
vn -0.9157972 0.04885609 0.3986584
vn -0.1904189 0.1108202 0.1163695
vn 0.005389988 -0.09910282 0.05755106
vn 0.02630168 0.1153541 -0.003809214
vn 0.6340901 -0.04858496 -0.7717313
vn -0.1031395 0.5070172 0.8557428
vn -0.08600581 0.06892664 0.2078692
vn 0.09865662 0.05860996 -0.01388785
vn 0.3615105 -0.5576164 -0.7472444
vn 0.09117186 -0.1111541 0.2872168
vn -0.06895647 -0.1429365 0.2989843
vn -0.1130493 0.03924703 0.9928139
vn -0.1415359 0.01093648 0.003763437
vn 0.2442582 -0.4427946 -0.8627114
vn 0.2430451 -0.4212912 -0.8734211
vn 0.241832 -0.3997878 -0.8841307
vn 0.7452505 -0.3083337 -0.5912123
vn -0.3102002 -0.1951262 0.006648436
vn -0.7972471 -0.389081 0.2733796
vn -0.08611557 -0.3243809 0.1711761
vn 0.8154994 -0.5201734 0.2537329
vn -0.2970816 -0.2176052 -0.1186578
vn 0.3248231 -0.3926826 -0.683206
vn 0.8927664 -0.2745511 -0.3571973
vn 0.6058511 -0.3485944 -0.6027617
vn -0.3086206 -0.1347075 -0.6654016
vn -0.08242828 -0.41105 0.05907033
vn 0.6821481 -0.4955979 0.5376399
vn -0.2470004 0.6064906 -0.2481675
vn -0.7881583 0.2592297 -0.5582173
vn -0.4626144 0.3626894 -0.3089886
vn -0.8938423 -0.124913 -0.4306307
vn -0.2998424 0.4144193 -0.1843742

usemtl ProBuilderDefault
f 14/19/11 13/18/11 12/17/11
f 12/26/18 3/25/17 11/24/16
f 14/20/12 12/26/18 11/24/16
f 14/20/12 11/24/16 15/23/15
f 4/22/14 13/21/13 14/20/12
f 15/23/15 4/22/14 14/20/12
f 16/31/22 17/32/22 18/33/22
f 16/39/27 2/41/29 4/40/28
f 16/39/27 18/38/26 2/41/29
f 18/38/26 6/42/30 2/41/29
f 15/43/31 6/42/30 18/38/26
f 15/43/31 18/38/26 17/44/32
f 19/45/33 20/46/33 21/47/33
f 21/49/35 5/51/37 6/50/36
f 20/48/34 5/51/37 21/49/35
f 11/52/38 5/51/37 20/48/34
f 11/52/38 20/48/34 19/54/40
f 11/52/38 19/54/40 15/53/39
f 22/65/47 5/67/49 11/66/48
f 25/64/46 5/67/49 22/65/47
f 24/63/45 5/67/49 25/64/46
f 5/67/49 24/63/45 10/71/53
f 5/67/49 10/71/53 1/68/50
f 1/68/50 10/71/53 7/70/52
f 1/68/50 7/70/52 3/69/51
f 24/63/45 9/72/54 10/71/53
f 24/63/45 23/73/55 9/72/54
f 11/77/59 8/76/58 22/78/60
f 8/76/58 23/74/56 22/78/60
f 8/76/58 9/75/57 23/74/56
f 4/4/3 2/2/2 1/1/1
f 1/1/1 3/3/2 4/4/3
f 6/8/6 5/6/5 1/5/4
f 1/5/4 2/7/5 6/8/6
f 10/12/7 9/11/7 8/10/7
f 8/10/7 7/9/7 10/12/7
f 7/13/8 8/16/9 11/15/10
f 11/15/10 3/14/9 7/13/8
f 4/29/21 3/28/20 12/27/19
f 12/27/19 13/30/20 4/29/21
f 17/34/23 16/37/25 4/36/23
f 4/36/23 15/35/24 17/34/23
f 19/55/41 21/58/42 6/57/43
f 6/57/43 15/56/42 19/55/41
f 23/60/44 24/61/44 25/62/44
f 25/62/44 22/59/44 23/60/44

